HIERARCHY
ROOT mixamorig:Hips
{
	OFFSET 0.000000 201.639420 0.000000
	CHANNELS 6 Xposition Yposition Zposition Xrotation Yrotation Zrotation
	JOINT mixamorig:Spine
	{
		OFFSET 0.006200 19.524994 -2.481800
		CHANNELS 3 Xrotation Yrotation Zrotation
		JOINT mixamorig:Spine1
		{
			OFFSET -0.000900 22.835007 -2.825400
			CHANNELS 3 Xrotation Yrotation Zrotation
			JOINT mixamorig:Spine2
			{
				OFFSET -0.020600 26.552490 -3.193300
				CHANNELS 3 Xrotation Yrotation Zrotation
				JOINT mixamorig:Neck
				{
					OFFSET -0.060000 30.701813 1.352200
					CHANNELS 3 Xrotation Yrotation Zrotation
					JOINT mixamorig:Head
					{
						OFFSET -0.087200 22.547607 3.670900
						CHANNELS 3 Xrotation Yrotation Zrotation
						JOINT mixamorig:HeadTop_End
						{
							OFFSET -0.830600 40.355194 7.893500
							CHANNELS 3 Xrotation Yrotation Zrotation
							End Site
							{
								OFFSET 0.000000 30.592346 0.000000
							}
						}
						JOINT mixamorig:RightEye
						{
							OFFSET -6.302100 18.118591 16.197100
							CHANNELS 3 Xrotation Yrotation Zrotation
							End Site
							{
								OFFSET 0.000000 30.592346 0.000000
							}
						}
						JOINT mixamorig:LeftEye
						{
							OFFSET 6.741500 18.382690 16.401899
							CHANNELS 3 Xrotation Yrotation Zrotation
							End Site
							{
								OFFSET 0.000000 30.592346 0.000000
							}
						}
					}
				}
				JOINT mixamorig:LeftShoulder
				{
					OFFSET 11.924900 18.230499 1.425400
					CHANNELS 3 Xrotation Yrotation Zrotation
					JOINT mixamorig:LeftArm
					{
						OFFSET 25.435989 -0.697632 -5.229300
						CHANNELS 3 Xrotation Yrotation Zrotation
						JOINT mixamorig:LeftForeArm
						{
							OFFSET 54.684776 0.000000 0.000000
							CHANNELS 3 Xrotation Yrotation Zrotation
							JOINT mixamorig:LeftHand
							{
								OFFSET 55.098175 0.000000 0.000000
								CHANNELS 3 Xrotation Yrotation Zrotation
								JOINT mixamorig:LeftHandMiddle1
								{
									OFFSET 23.369751 0.000000 0.000000
									CHANNELS 3 Xrotation Yrotation Zrotation
									JOINT mixamorig:LeftHandMiddle2
									{
										OFFSET 6.378677 0.000000 0.000000
										CHANNELS 3 Xrotation Yrotation Zrotation
										JOINT mixamorig:LeftHandMiddle3
										{
											OFFSET 6.148331 0.000000 0.000000
											CHANNELS 3 Xrotation Yrotation Zrotation
											JOINT mixamorig:LeftHandMiddle4
											{
												OFFSET 6.582504 0.000000 0.000000
												CHANNELS 3 Xrotation Yrotation Zrotation
												End Site
												{
													OFFSET -1.168900 6.395691 1.028606
												}
											}
										}
									}
								}
								JOINT mixamorig:LeftHandThumb1
								{
									OFFSET 7.235672 -3.848206 5.434273
									CHANNELS 3 Xrotation Yrotation Zrotation
									JOINT mixamorig:LeftHandThumb2
									{
										OFFSET 6.568451 -3.792297 3.792300
										CHANNELS 3 Xrotation Yrotation Zrotation
										JOINT mixamorig:LeftHandThumb3
										{
											OFFSET 6.063080 -3.500519 3.500518
											CHANNELS 3 Xrotation Yrotation Zrotation
											JOINT mixamorig:LeftHandThumb4
											{
												OFFSET 4.793182 -2.767334 2.767349
												CHANNELS 3 Xrotation Yrotation Zrotation
												End Site
												{
													OFFSET 0.101639 6.054260 1.275483
												}
											}
										}
									}
								}
								JOINT mixamorig:LeftHandIndex1
								{
									OFFSET 23.101074 -0.309540 4.992809
									CHANNELS 3 Xrotation Yrotation Zrotation
									JOINT mixamorig:LeftHandIndex2
									{
										OFFSET 6.226883 0.000000 0.000000
										CHANNELS 3 Xrotation Yrotation Zrotation
										JOINT mixamorig:LeftHandIndex3
										{
											OFFSET 6.094330 0.000000 0.000000
											CHANNELS 3 Xrotation Yrotation Zrotation
											JOINT mixamorig:LeftHandIndex4
											{
												OFFSET 5.482605 0.000000 0.000000
												CHANNELS 3 Xrotation Yrotation Zrotation
												End Site
												{
													OFFSET -1.427902 5.233032 0.797164
												}
											}
										}
									}
								}
								JOINT mixamorig:LeftHandRing1
								{
									OFFSET 22.299240 0.021149 -3.964172
									CHANNELS 3 Xrotation Yrotation Zrotation
									JOINT mixamorig:LeftHandRing2
									{
										OFFSET 6.321869 0.000000 0.000000
										CHANNELS 3 Xrotation Yrotation Zrotation
										JOINT mixamorig:LeftHandRing3
										{
											OFFSET 5.899796 0.000000 0.000000
											CHANNELS 3 Xrotation Yrotation Zrotation
											JOINT mixamorig:LeftHandRing4
											{
												OFFSET 6.517899 0.000000 0.000000
												CHANNELS 3 Xrotation Yrotation Zrotation
												End Site
												{
													OFFSET -1.637299 6.232208 0.980890
												}
											}
										}
									}
								}
								JOINT mixamorig:LeftHandPinky1
								{
									OFFSET 20.463791 -0.302338 -8.562233
									CHANNELS 3 Xrotation Yrotation Zrotation
									JOINT mixamorig:LeftHandPinky2
									{
										OFFSET 6.908646 0.000000 0.000000
										CHANNELS 3 Xrotation Yrotation Zrotation
										JOINT mixamorig:LeftHandPinky3
										{
											OFFSET 4.622849 0.000000 0.000000
											CHANNELS 3 Xrotation Yrotation Zrotation
											JOINT mixamorig:LeftHandPinky4
											{
												OFFSET 5.216080 0.000000 0.000000
												CHANNELS 3 Xrotation Yrotation Zrotation
												End Site
												{
													OFFSET -0.606308 5.116241 0.814926
												}
											}
										}
									}
								}
							}
						}
					}
				}
				JOINT mixamorig:RightShoulder
				{
					OFFSET -12.001300 18.284088 1.348900
					CHANNELS 3 Xrotation Yrotation Zrotation
					JOINT mixamorig:RightArm
					{
						OFFSET -25.308500 -0.751312 -5.164599
						CHANNELS 3 Xrotation Yrotation Zrotation
						JOINT mixamorig:RightForeArm
						{
							OFFSET -54.684429 0.000000 0.000000
							CHANNELS 3 Xrotation Yrotation Zrotation
							JOINT mixamorig:RightHand
							{
								OFFSET -55.150291 0.000000 0.000000
								CHANNELS 3 Xrotation Yrotation Zrotation
								JOINT mixamorig:RightHandMiddle1
								{
									OFFSET -23.317566 0.000000 0.000000
									CHANNELS 3 Xrotation Yrotation Zrotation
									JOINT mixamorig:RightHandMiddle2
									{
										OFFSET -6.378403 0.000000 0.000000
										CHANNELS 3 Xrotation Yrotation Zrotation
										JOINT mixamorig:RightHandMiddle3
										{
											OFFSET -6.148193 0.000000 0.000000
											CHANNELS 3 Xrotation Yrotation Zrotation
											JOINT mixamorig:RightHandMiddle4
											{
												OFFSET -6.583389 0.000000 0.000000
												CHANNELS 3 Xrotation Yrotation Zrotation
												End Site
												{
													OFFSET 1.171692 6.395905 1.029786
												}
											}
										}
									}
								}
								JOINT mixamorig:RightHandThumb1
								{
									OFFSET -7.190521 -3.860474 5.435846
									CHANNELS 3 Xrotation Yrotation Zrotation
									JOINT mixamorig:RightHandThumb2
									{
										OFFSET -6.567429 -3.791718 3.791708
										CHANNELS 3 Xrotation Yrotation Zrotation
										JOINT mixamorig:RightHandThumb3
										{
											OFFSET -6.062469 -3.500153 3.500166
											CHANNELS 3 Xrotation Yrotation Zrotation
											JOINT mixamorig:RightHandThumb4
											{
												OFFSET -4.792618 -2.767029 2.767022
												CHANNELS 3 Xrotation Yrotation Zrotation
												End Site
												{
													OFFSET -0.100327 6.053253 1.276754
												}
											}
										}
									}
								}
								JOINT mixamorig:RightHandIndex1
								{
									OFFSET -23.048981 -0.310791 4.992554
									CHANNELS 3 Xrotation Yrotation Zrotation
									JOINT mixamorig:RightHandIndex2
									{
										OFFSET -6.227539 0.000000 0.000000
										CHANNELS 3 Xrotation Yrotation Zrotation
										JOINT mixamorig:RightHandIndex3
										{
											OFFSET -6.095047 0.000000 0.000000
											CHANNELS 3 Xrotation Yrotation Zrotation
											JOINT mixamorig:RightHandIndex4
											{
												OFFSET -5.484772 0.000000 0.000000
												CHANNELS 3 Xrotation Yrotation Zrotation
												End Site
												{
													OFFSET 1.420593 5.237305 0.797056
												}
											}
										}
									}
								}
								JOINT mixamorig:RightHandRing1
								{
									OFFSET -22.246323 0.020569 -3.963762
									CHANNELS 3 Xrotation Yrotation Zrotation
									JOINT mixamorig:RightHandRing2
									{
										OFFSET -6.322128 0.000000 0.000000
										CHANNELS 3 Xrotation Yrotation Zrotation
										JOINT mixamorig:RightHandRing3
										{
											OFFSET -5.900024 0.000000 0.000000
											CHANNELS 3 Xrotation Yrotation Zrotation
											JOINT mixamorig:RightHandRing4
											{
												OFFSET -6.518356 0.000000 0.000000
												CHANNELS 3 Xrotation Yrotation Zrotation
												End Site
												{
													OFFSET 1.636398 6.232697 0.982186
												}
											}
										}
									}
								}
								JOINT mixamorig:RightHandPinky1
								{
									OFFSET -20.411011 -0.303314 -8.561701
									CHANNELS 3 Xrotation Yrotation Zrotation
									JOINT mixamorig:RightHandPinky2
									{
										OFFSET -6.907349 0.000000 0.000000
										CHANNELS 3 Xrotation Yrotation Zrotation
										JOINT mixamorig:RightHandPinky3
										{
											OFFSET -4.623840 0.000000 0.000000
											CHANNELS 3 Xrotation Yrotation Zrotation
											JOINT mixamorig:RightHandPinky4
											{
												OFFSET -5.218353 0.000000 0.000000
												CHANNELS 3 Xrotation Yrotation Zrotation
												End Site
												{
													OFFSET 0.602097 5.118835 0.816273
												}
											}
										}
									}
								}
							}
						}
					}
				}
			}
		}
	}
	JOINT mixamorig:LeftUpLeg
	{
		OFFSET 18.168400 -13.561905 -0.039000
		CHANNELS 3 Xrotation Yrotation Zrotation
		JOINT mixamorig:LeftLeg
		{
			OFFSET 0.577358 -80.825211 -3.695000
			CHANNELS 3 Xrotation Yrotation Zrotation
			JOINT mixamorig:LeftFoot
			{
				OFFSET -0.577356 -83.370262 -6.520700
				CHANNELS 3 Xrotation Yrotation Zrotation
				JOINT mixamorig:LeftToeBase
				{
					OFFSET 0.750401 -20.798306 25.135401
					CHANNELS 3 Xrotation Yrotation Zrotation
					JOINT mixamorig:LeftToe_End
					{
						OFFSET -0.000500 0.001200 19.917799
						CHANNELS 3 Xrotation Yrotation Zrotation
						End Site
						{
							OFFSET 0.000000 19.917805 0.000000
						}
					}
				}
			}
		}
	}
	JOINT mixamorig:RightUpLeg
	{
		OFFSET -18.162500 -13.585098 -0.041000
		CHANNELS 3 Xrotation Yrotation Zrotation
		JOINT mixamorig:RightLeg
		{
			OFFSET -0.595024 -80.945297 -3.631900
			CHANNELS 3 Xrotation Yrotation Zrotation
			JOINT mixamorig:RightFoot
			{
				OFFSET 0.595024 -83.218193 -6.561200
				CHANNELS 3 Xrotation Yrotation Zrotation
				JOINT mixamorig:RightToeBase
				{
					OFFSET -0.753601 -20.807106 25.115000
					CHANNELS 3 Xrotation Yrotation Zrotation
					JOINT mixamorig:RightToe_End
					{
						OFFSET 0.000299 0.001700 19.918200
						CHANNELS 3 Xrotation Yrotation Zrotation
						End Site
						{
							OFFSET 0.000000 19.918203 0.000000
						}
					}
				}
			}
		}
	}
}
MOTION
Frames: 5
Frame Time: 0.033333
-7.859962 194.672638 107.151024 -2.698100 1.385470 -5.882882 3.654565 -0.804078 2.415790 7.319179 -1.404444 3.849326 7.319185 -1.404445 3.849328 -18.878597 0.113736 0.102236 3.055326 3.201927 -2.405900 -0.000000 -0.000000 0.000000 -0.000000 -0.000000 0.000000 -0.000000 -0.000000 0.000000 12.575027 6.860945 -4.968455 1.585765 -40.413317 -60.307442 -0.094921 -38.163764 -0.001942 2.911827 -2.171927 22.040667 -0.517194 -0.464813 -26.317832 -0.498020 -1.588792 -26.467126 0.000002 0.000004 0.000003 0.000003 0.000002 0.000001 -5.192755 4.194835 9.013509 2.607161 6.629802 1.555731 -0.000005 0.000006 0.000008 -0.000002 0.000003 -0.000001 0.070513 -0.510380 -26.025859 0.124105 0.877953 -24.524073 0.000001 -0.000006 -0.000003 -0.000000 0.000001 -0.000000 -5.876863 1.319969 -27.088640 -2.266036 -4.642163 -57.709218 0.000005 -0.000001 -0.000002 0.000004 -0.000001 0.000001 -3.645147 3.011637 -33.500555 -4.090875 -8.986640 -66.980612 -0.000001 -0.000003 0.000003 0.000000 0.000001 0.000001 11.528390 8.486190 -1.626431 2.195771 2.678607 69.035850 -0.089965 30.173320 0.012506 12.675783 -3.425825 0.277667 -0.980774 -0.401398 19.777366 -14.968904 -1.438044 20.689603 0.000002 0.000002 0.000001 0.000001 -0.000000 -0.000003 -5.481728 -3.709468 -3.794179 2.717114 -7.521279 -2.198783 -0.000002 -0.000003 -0.000015 -0.000002 0.000001 0.000001 -0.830107 -0.050397 8.626443 0.802132 -0.155911 33.060885 -0.000002 0.000001 0.000008 0.000002 0.000000 0.000000 -0.568745 -1.652694 23.786180 0.079699 4.557401 25.468329 0.000001 -0.000002 0.000002 -0.000004 0.000000 0.000002 -0.188365 -4.313215 30.092543 -2.383425 9.102406 27.863673 0.000003 -0.000003 0.000008 -0.000003 0.000001 0.000003 -24.592110 0.030420 13.347235 68.333891 -3.493324 -2.546868 22.029520 -6.722921 -4.427385 -11.270487 -1.592849 7.540849 0.000001 -0.000000 -0.000000 -20.180813 -4.694779 6.390904 29.557661 -1.922514 1.005558 -6.442826 -1.043094 -2.559544 -1.726304 -0.176305 0.436668 -0.000000 -0.000000 -0.000000 
-8.487461 195.475616 112.472435 -3.623070 1.125663 -5.269226 3.670140 -0.489184 2.273640 7.344442 -0.792998 3.562254 7.344445 -0.792999 3.562254 -18.032871 0.012299 -0.107021 3.865482 2.540532 -2.607868 0.000000 -0.000000 -0.000000 0.000000 -0.000000 -0.000000 0.000000 -0.000000 -0.000000 12.603187 6.979777 -5.373899 3.465154 -38.582376 -60.534341 -0.101148 -36.792064 -0.001453 3.229310 -1.160232 20.652602 -0.517177 -0.464776 -26.317509 -0.498019 -1.588784 -26.466833 0.000004 0.000001 0.000004 -0.000000 -0.000001 -0.000001 -4.785156 4.394856 9.687391 2.607170 6.629789 1.555724 0.000002 0.000005 0.000013 0.000004 0.000000 -0.000001 0.070518 -0.510369 -26.025507 0.124098 0.877959 -24.523781 -0.000002 -0.000008 -0.000006 0.000001 -0.000000 -0.000001 -5.876848 1.320000 -27.088329 -2.266013 -4.642164 -57.708917 0.000004 0.000000 0.000005 -0.000000 -0.000000 0.000002 -3.645132 3.011701 -33.500227 -4.090830 -8.986621 -66.980325 -0.000003 0.000002 0.000003 -0.000003 -0.000001 0.000001 11.347736 9.649424 -1.605902 0.793904 2.735577 68.237572 -0.101973 33.481782 0.012341 12.749029 -2.523775 0.462239 -1.028057 -0.278574 21.406619 -14.984472 -1.193175 21.609409 -0.000001 0.000002 0.000003 0.000000 -0.000002 0.000003 -5.481710 -3.709477 -3.794199 2.717115 -7.521261 -2.198760 -0.000001 0.000001 -0.000017 -0.000004 0.000001 0.000002 -0.831622 -0.082083 10.397863 0.831636 -0.153370 34.038944 -0.000002 -0.000000 0.000010 -0.000000 0.000000 0.000000 -0.598397 -1.484844 25.420173 0.051565 4.665143 26.301599 -0.000002 -0.000002 0.000001 -0.000002 -0.000001 0.000001 -0.270709 -4.096494 31.562629 -2.445085 9.281039 28.796890 0.000002 -0.000002 -0.000000 0.000000 0.000002 0.000002 -26.801551 -0.203731 12.232006 68.029449 -3.676316 -2.551081 16.877037 -5.749837 -4.543178 -13.823566 -1.894727 8.389327 -0.000005 -0.000000 0.000000 -16.878552 -4.808752 6.015614 28.829846 -1.737666 0.988093 -8.070995 -0.381810 -2.728483 -1.515071 -0.177647 0.437904 0.000000 -0.000000 0.000000 
-8.915814 196.452408 117.662315 -4.380491 0.641691 -4.469811 3.675416 -0.138664 2.013659 7.350608 -0.126948 3.147882 7.350609 -0.126948 3.147880 -17.344325 -0.098589 -0.240137 4.603108 1.848848 -2.703054 0.000000 0.000000 -0.000000 0.000000 0.000000 -0.000000 0.000000 0.000000 -0.000000 12.637839 7.271092 -5.545993 5.315897 -36.838256 -60.662585 -0.108376 -35.360391 -0.001686 3.238095 0.763605 19.379371 -0.517163 -0.464763 -26.317241 -0.498011 -1.588751 -26.466548 0.000002 0.000001 0.000002 0.000002 -0.000002 -0.000002 -4.509750 4.476105 10.237151 2.607162 6.629799 1.555744 0.000002 -0.000000 0.000009 0.000000 0.000001 -0.000001 0.070513 -0.510392 -26.025234 0.124086 0.877963 -24.523490 -0.000001 -0.000008 -0.000004 -0.000000 0.000001 -0.000000 -5.876824 1.320018 -27.088044 -2.265990 -4.642137 -57.708623 -0.000001 -0.000004 0.000003 -0.000003 -0.000004 0.000002 -3.645093 3.011720 -33.499950 -4.090809 -8.986617 -66.980045 -0.000002 0.000003 0.000002 0.000000 0.000001 0.000001 11.173305 10.783708 -1.430630 -0.811117 2.827552 67.419131 -0.111961 37.325013 0.011761 13.094318 -1.495131 0.544604 -1.090094 -0.151559 23.394207 -15.008393 -0.894462 22.624947 0.000004 0.000000 0.000001 0.000000 -0.000001 0.000001 -5.481727 -3.709465 -3.794159 2.717119 -7.521267 -2.198764 -0.000002 -0.000000 -0.000016 -0.000002 0.000001 0.000001 -0.838473 -0.149956 12.687811 0.870998 -0.181637 35.208092 0.000004 -0.000002 0.000007 0.000002 0.000000 -0.000001 -0.629429 -1.307305 27.312337 0.022882 4.757189 27.132158 -0.000002 0.000003 0.000006 0.000003 0.000002 0.000003 -0.361357 -3.862426 33.259534 -2.535821 9.498270 30.073955 0.000003 -0.000003 -0.000003 -0.000002 0.000001 0.000002 -27.854345 0.066031 10.607246 64.630071 -3.620922 -2.456238 12.856649 -1.779618 -5.361703 -16.493730 -1.241810 5.765514 -0.000002 0.000000 -0.000000 -13.450171 -4.832571 5.364410 27.299153 -1.510638 0.935763 -9.205319 0.380822 -2.768589 -1.336323 -0.178773 0.438950 -0.000000 0.000000 0.000000 
-9.187498 197.511200 122.731476 -4.962807 0.127020 -3.590572 3.687746 0.222680 1.684257 7.371921 0.557809 2.650914 7.371924 0.557809 2.650915 -16.847995 -0.234593 -0.319913 5.038169 1.044974 -2.745497 -0.000000 0.000000 -0.000000 -0.000000 0.000000 -0.000000 -0.000000 0.000000 -0.000000 12.670987 7.596595 -5.605373 7.116687 -35.188858 -60.704454 -0.116856 -33.884022 -0.002547 3.158506 3.410062 17.917951 -0.517158 -0.464744 -26.316946 -0.497990 -1.588740 -26.466262 0.000005 0.000001 0.000002 -0.000004 0.000001 -0.000001 -4.517870 4.395605 10.335401 2.607167 6.629800 1.555734 0.000001 -0.000003 0.000010 0.000000 -0.000001 -0.000002 0.070510 -0.510389 -26.024945 0.124081 0.877963 -24.523197 -0.000001 -0.000004 -0.000005 -0.000002 0.000001 0.000001 -5.876822 1.320048 -27.087748 -2.265975 -4.642134 -57.708378 0.000002 0.000003 0.000007 0.000001 0.000001 -0.000001 -3.645088 3.011751 -33.499687 -4.090770 -8.986606 -66.979758 -0.000002 0.000000 0.000001 -0.000001 0.000000 0.000004 11.020362 11.762278 -1.247523 -2.684093 2.955581 66.581217 -0.120024 41.560714 0.011215 13.385689 -0.397041 0.136010 -1.164700 -0.024685 25.654851 -15.044525 -0.557336 23.695133 0.000001 0.000001 -0.000000 -0.000004 0.000001 0.000004 -5.481721 -3.709460 -3.794170 2.717100 -7.521269 -2.198775 -0.000002 -0.000001 -0.000015 -0.000002 -0.000004 0.000003 -0.845543 -0.247702 15.343537 0.918483 -0.232747 36.489288 0.000003 0.000001 0.000008 0.000001 -0.000000 -0.000003 -0.663928 -1.120239 29.403087 -0.005155 4.833740 27.941809 -0.000005 -0.000003 0.000001 -0.000000 -0.000002 0.000002 -0.461569 -3.613153 35.136245 -2.654137 9.744627 31.629271 0.000002 -0.000003 0.000001 0.000000 0.000000 0.000001 -27.874912 0.593674 8.842843 58.681973 -3.400132 -2.273556 9.023947 3.307535 -6.698045 -15.284676 -0.658722 4.038357 0.000001 0.000001 -0.000000 -9.963696 -4.498027 4.658040 25.061631 -1.264771 0.850907 -9.915310 0.728306 -2.696910 -1.281289 -0.179121 0.439273 0.000000 -0.000000 0.000000 
-9.342020 198.263931 127.697899 -5.297890 -0.297632 -2.779968 3.699315 0.560190 1.354086 7.392864 1.201030 2.149961 7.392867 1.201030 2.149961 -16.533089 -0.375656 -0.417481 5.108707 0.203232 -2.788724 0.000000 -0.000000 -0.000000 0.000000 -0.000000 -0.000000 0.000000 -0.000000 -0.000000 12.703525 7.880908 -5.722512 8.849896 -33.639385 -60.670016 -0.125554 -32.385762 -0.003874 3.112540 5.738473 16.468312 -0.517149 -0.464723 -26.316690 -0.497983 -1.588721 -26.465988 -0.000005 -0.000001 -0.000000 0.000004 -0.000000 -0.000001 -4.790214 4.201359 9.959757 2.607171 6.629797 1.555713 -0.000002 0.000000 0.000009 0.000002 0.000000 0.000001 0.070517 -0.510402 -26.024699 0.124074 0.877951 -24.522932 0.000006 -0.000004 -0.000004 -0.000000 -0.000000 -0.000003 -5.876807 1.320060 -27.087514 -2.265963 -4.642119 -57.708084 0.000002 -0.000001 0.000008 -0.000001 -0.000003 0.000001 -3.645067 3.011779 -33.499431 -4.090746 -8.986603 -66.979506 -0.000003 0.000002 0.000001 -0.000001 0.000000 -0.000001 10.895694 12.552906 -1.268858 -4.619986 3.115787 65.740236 -0.126394 46.055102 0.010654 13.148743 0.760946 -0.542026 -1.249006 0.098070 28.103341 -15.094689 -0.197276 24.779151 0.000001 0.000001 -0.000000 -0.000001 -0.000000 -0.000002 -5.481709 -3.709463 -3.794180 2.717106 -7.521271 -2.198763 0.000000 -0.000001 -0.000014 -0.000002 0.000001 0.000001 -0.848245 -0.368153 18.212428 0.972099 -0.299122 37.803489 0.000001 0.000003 0.000011 -0.000001 -0.000000 0.000001 -0.703614 -0.924552 31.633157 -0.031444 4.895050 28.712346 -0.000001 -0.000002 -0.000000 -0.000000 0.000004 0.000002 -0.572207 -3.351313 37.145933 -2.797829 10.010632 33.397282 0.000001 -0.000006 0.000004 0.000000 -0.000002 -0.000001 -27.229712 1.246577 7.220018 50.956766 -3.082686 -2.020023 5.294608 7.844393 -7.702479 -9.871534 -0.487299 4.333059 -0.000000 -0.000000 -0.000000 -6.939744 -4.060542 3.971621 23.101494 -1.035825 0.779995 -10.702219 0.760615 -2.579388 -1.369542 -0.178566 0.438755 0.000000 -0.000000 -0.000000 
